<svg width="300" height="292" viewBox="0 0 300 292" fill="none" xmlns="http://www.w3.org/2000/svg">
<mask id="path-1-inside-1_225_11" fill="white">
<path fill-rule="evenodd" clip-rule="evenodd" d="M21.0896 226.694C39.2356 257.195 67.6085 280.273 101.165 291.828L126.811 217.346C96.7393 207.579 75.0003 179.328 75.0003 146C75.0003 104.579 108.579 71 150 71C191.422 71 225 104.579 225 146C225 179.328 203.262 207.578 173.191 217.346L198.84 291.826C232.396 280.271 260.768 257.192 278.913 226.691C297.058 196.19 303.801 160.243 297.943 125.24C292.084 90.2364 274.005 58.444 246.917 35.5134C219.829 12.5828 185.488 -0.000503022 149.998 1.50817e-08C114.508 0.000503053 80.1675 12.5848 53.0805 35.5162C25.9935 58.4475 7.91463 90.2404 2.0573 125.244C-3.80002 160.247 2.94363 196.194 21.0896 226.694Z"/>
</mask>
<path fill-rule="evenodd" clip-rule="evenodd" d="M21.0896 226.694C39.2356 257.195 67.6085 280.273 101.165 291.828L126.811 217.346C96.7393 207.579 75.0003 179.328 75.0003 146C75.0003 104.579 108.579 71 150 71C191.422 71 225 104.579 225 146C225 179.328 203.262 207.578 173.191 217.346L198.84 291.826C232.396 280.271 260.768 257.192 278.913 226.691C297.058 196.19 303.801 160.243 297.943 125.24C292.084 90.2364 274.005 58.444 246.917 35.5134C219.829 12.5828 185.488 -0.000503022 149.998 1.50817e-08C114.508 0.000503053 80.1675 12.5848 53.0805 35.5162C25.9935 58.4475 7.91463 90.2404 2.0573 125.244C-3.80002 160.247 2.94363 196.194 21.0896 226.694Z" fill="#5ACF5F"/>
<path d="M101.165 291.828L100.514 293.719L102.405 294.37L103.056 292.479L101.165 291.828ZM21.0896 226.694L19.3708 227.717L19.3708 227.717L21.0896 226.694ZM126.811 217.346L128.702 217.997L129.365 216.073L127.429 215.444L126.811 217.346ZM173.191 217.346L172.574 215.444L170.638 216.072L171.3 217.997L173.191 217.346ZM198.84 291.826L196.949 292.478L197.6 294.369L199.491 293.717L198.84 291.826ZM297.943 125.24L295.97 125.57L295.97 125.57L297.943 125.24ZM246.917 35.5134L245.625 37.0399L245.625 37.0399L246.917 35.5134ZM149.998 1.50817e-08L149.998 2L149.998 1.50817e-08ZM53.0805 35.5162L51.7882 33.9897L51.7882 33.9897L53.0805 35.5162ZM2.0573 125.244L0.0847298 124.914L2.0573 125.244ZM101.816 289.937C68.707 278.536 40.7125 255.766 22.8084 225.672L19.3708 227.717C37.7588 258.624 66.5099 282.01 100.514 293.719L101.816 289.937ZM124.92 216.695L99.2741 291.177L103.056 292.479L128.702 217.997L124.92 216.695ZM127.429 215.444C98.157 205.937 77.0003 178.436 77.0003 146H73.0003C73.0003 180.22 95.3216 209.221 126.193 219.249L127.429 215.444ZM77.0003 146C77.0003 105.683 109.684 73 150 73V69C107.474 69 73.0003 103.474 73.0003 146H77.0003ZM150 73C190.317 73 223 105.683 223 146H227C227 103.474 192.526 69 150 69V73ZM223 146C223 178.436 201.845 205.936 172.574 215.444L173.809 219.248C204.68 209.22 227 180.219 227 146H223ZM200.731 291.175L175.082 216.695L171.3 217.997L196.949 292.478L200.731 291.175ZM277.194 225.668C259.291 255.763 231.297 278.534 198.188 289.935L199.491 293.717C233.494 282.008 262.245 258.621 280.632 227.713L277.194 225.668ZM295.97 125.57C301.75 160.106 295.098 195.574 277.194 225.668L280.632 227.713C299.019 196.806 305.852 160.38 299.915 124.91L295.97 125.57ZM245.625 37.0399C272.351 59.6648 290.19 91.0332 295.97 125.57L299.915 124.91C293.979 89.4395 275.658 57.2233 248.209 33.9869L245.625 37.0399ZM149.998 2C185.015 1.9995 218.898 14.415 245.625 37.0399L248.209 33.9869C220.76 10.7506 185.962 -2.00051 149.998 -2L149.998 2ZM54.3728 37.0426C81.0986 14.417 114.981 2.0005 149.998 2L149.998 -2C114.035 -1.99949 79.2364 10.7526 51.7882 33.9897L54.3728 37.0426ZM4.02988 125.574C9.8091 91.0372 27.6469 59.6682 54.3728 37.0426L51.7882 33.9897C24.34 57.2268 6.02015 89.4436 0.0847298 124.914L4.02988 125.574ZM22.8084 225.672C4.90438 195.578 -1.74935 160.111 4.02988 125.574L0.0847298 124.914C-5.85069 160.384 0.98287 196.81 19.3708 227.717L22.8084 225.672Z" fill="black" mask="url(#path-1-inside-1_225_11)"/>
<mask id="path-3-inside-2_225_11" fill="white">
<path fill-rule="evenodd" clip-rule="evenodd" d="M98.4358 179.217C105.694 191.759 117.043 201.249 130.466 206L145.285 161.758C138.75 159.689 134 153.432 134 146.035C134 136.951 141.163 129.587 150 129.587C158.836 129.587 166 136.951 166 146.035C166 153.432 161.25 159.688 154.716 161.757L169.536 205.999C182.958 201.248 194.307 191.758 201.565 179.216C208.823 166.674 211.52 151.892 209.177 137.499C206.833 123.105 199.602 110.032 188.767 100.603C177.931 91.1741 164.195 85.9998 149.999 86C135.803 86.0002 122.067 91.1749 111.232 100.604C100.397 110.034 93.1658 123.107 90.8229 137.5C88.48 151.894 91.1774 166.675 98.4358 179.217Z"/>
</mask>
<path fill-rule="evenodd" clip-rule="evenodd" d="M98.4358 179.217C105.694 191.759 117.043 201.249 130.466 206L145.285 161.758C138.75 159.689 134 153.432 134 146.035C134 136.951 141.163 129.587 150 129.587C158.836 129.587 166 136.951 166 146.035C166 153.432 161.25 159.688 154.716 161.757L169.536 205.999C182.958 201.248 194.307 191.758 201.565 179.216C208.823 166.674 211.52 151.892 209.177 137.499C206.833 123.105 199.602 110.032 188.767 100.603C177.931 91.1741 164.195 85.9998 149.999 86C135.803 86.0002 122.067 91.1749 111.232 100.604C100.397 110.034 93.1658 123.107 90.8229 137.5C88.48 151.894 91.1774 166.675 98.4358 179.217Z" fill="#5ACF5F"/>
<path d="M130.466 206L129.799 207.885L131.716 208.564L132.362 206.635L130.466 206ZM98.4358 179.217L96.7048 180.219L96.7048 180.219L98.4358 179.217ZM145.285 161.758L147.181 162.393L147.827 160.465L145.888 159.851L145.285 161.758ZM154.716 161.757L154.112 159.851L152.173 160.464L152.819 162.393L154.716 161.757ZM169.536 205.999L167.639 206.635L168.285 208.564L170.203 207.885L169.536 205.999ZM209.177 137.499L207.203 137.82L207.203 137.82L209.177 137.499ZM188.767 100.603L190.079 99.0945L190.079 99.0945L188.767 100.603ZM149.999 86L149.999 84L149.999 86ZM111.232 100.604L112.545 102.113L112.545 102.113L111.232 100.604ZM131.133 204.115C118.168 199.525 107.192 190.353 100.167 178.215L96.7048 180.219C104.197 193.164 115.919 202.972 129.799 207.885L131.133 204.115ZM143.388 161.122L128.57 205.365L132.362 206.635L147.181 162.393L143.388 161.122ZM145.888 159.851C140.19 158.047 136 152.566 136 146.035H132C132 154.298 137.309 161.331 144.681 163.664L145.888 159.851ZM136 146.035C136 138.003 142.319 131.587 150 131.587V127.587C140.007 127.587 132 135.899 132 146.035H136ZM150 131.587C157.68 131.587 164 138.003 164 146.035H168C168 135.899 159.993 127.587 150 127.587V131.587ZM164 146.035C164 152.566 159.81 158.047 154.112 159.851L155.319 163.664C162.691 161.33 168 154.298 168 146.035H164ZM171.432 205.364L156.612 161.122L152.819 162.393L167.639 206.635L171.432 205.364ZM199.834 178.214C192.81 190.352 181.834 199.524 168.868 204.114L170.203 207.885C184.083 202.971 195.804 193.163 203.296 180.217L199.834 178.214ZM207.203 137.82C209.472 151.761 206.859 166.074 199.834 178.214L203.296 180.217C210.787 167.273 213.568 152.023 211.151 137.177L207.203 137.82ZM187.454 102.112C197.931 111.229 204.933 123.88 207.203 137.82L211.151 137.177C208.734 122.331 201.273 108.835 190.079 99.0945L187.454 102.112ZM149.999 88C163.706 87.9998 176.978 92.9955 187.454 102.112L190.079 99.0945C178.885 89.3527 164.684 83.9998 149.999 84L149.999 88ZM112.545 102.113C123.021 92.9963 136.292 88.0002 149.999 88L149.999 84C135.314 84.0002 121.113 89.3535 109.919 99.0956L112.545 102.113ZM92.7969 137.822C95.0661 123.881 102.068 111.231 112.545 102.113L109.919 99.0956C98.7264 108.837 91.2656 122.333 88.8489 137.179L92.7969 137.822ZM100.167 178.215C93.1414 166.076 90.5277 151.763 92.7969 137.822L88.8489 137.179C86.4323 152.025 89.2135 167.275 96.7048 180.219L100.167 178.215Z" fill="black" mask="url(#path-3-inside-2_225_11)"/>
</svg>
